<svg xmlns="http://www.w3.org/2000/svg" viewBox="0 0 140 140" fill="#0095f7"><path d="M1 135.1c7.3 0 13.6.9 19.8-.2 12.6-2.3 22.7-15 24.4-35 1.8-21.1.5-42.5 1.1-64.3H16.2v7.9l-.6 50.2c-.6 15.7-5.2 29.5-14.6 41.4zM64.9 111v-8.2c-.1-11.7.1-23.3-.4-35-.3-12-5.3-23.5-14.1-31.8 7.2 0 13.9-.9 20.3.2 14.2 2.5 21.5 13.1 23 26.2 1.9 15.9.8 32.2 1.3 48.6H64.9zM30.7 4.5C37 4.6 42.1 9.7 42.2 16c-.2 6.3-5.3 11.3-11.5 11.4-6.2-.2-11.2-5.2-11.4-11.4.1-6.2 5.1-11.3 11.4-11.5zM108.2 111v-8.2l-.4-35c-.3-12.1-5.4-23.5-14.1-31.8 7.2 0 14-.9 20.3.2 14.3 2.5 21.5 13.1 23 26.2 1.9 15.9.8 32.2 1.3 48.6h-30.1z"/></svg>