<?xml version="1.0" encoding="utf-8"?>
<!-- Generator: Adobe Illustrator 21.0.2, SVG Export Plug-In . SVG Version: 6.00 Build 0)  -->
<svg version="1.1" id="Layer_1" xmlns="http://www.w3.org/2000/svg" xmlns:xlink="http://www.w3.org/1999/xlink" x="0px" y="0px"
	 viewBox="0 0 140 140" style="enable-background:new 0 0 140 140;" xml:space="preserve">
<style type="text/css">
	.st0{fill:#0095F7;}
</style>
<title>Artboard 1</title>
<path class="st0" d="M1,135.1c7.3,0,13.6,0.9,19.8-0.2c12.6-2.3,22.7-15,24.4-35c1.8-21.1,0.5-42.5,1.1-64.3l-30.1,0
	c0,2.8,0,5.3,0,7.9c-0.1,16.7,0,33.5-0.6,50.2C15,109.4,10.4,123.2,1,135.1z"/>
<path class="st0" d="M64.9,111c0-2.9,0-5.5,0-8.2c-0.1-11.7,0.1-23.3-0.4-35C64.2,55.8,59.2,44.3,50.4,36c7.2,0,13.9-0.9,20.3,0.2
	c14.2,2.5,21.5,13.1,23,26.2c1.9,15.9,0.8,32.2,1.3,48.6H64.9z"/>
<path class="st0" d="M30.7,4.5C37,4.6,42.1,9.7,42.2,16c-0.2,6.3-5.3,11.3-11.5,11.4c-6.2-0.2-11.2-5.2-11.4-11.4
	C19.4,9.8,24.4,4.7,30.7,4.5z"/>
<path class="st0" d="M108.2,111c0-2.9,0-5.5,0-8.2c-0.1-11.7,0-23.3-0.4-35c-0.3-12.1-5.4-23.5-14.1-31.8c7.2,0,14-0.9,20.3,0.2
	c14.3,2.5,21.5,13.1,23,26.2c1.9,15.9,0.8,32.2,1.3,48.6H108.2z"/>
</svg>
